<svg version="1.2" baseProfile="tiny-ps" xmlns="http://www.w3.org/2000/svg" viewBox="0 0 412 658" width="412" height="658">
	<title>26694-ai</title>
	<style>
		tspan { white-space:pre }
		.shp0 { fill: #ffffff } 
		.shp1 { fill: #ff260c } 
		.shp2 { fill: #201c38 } 
	</style>
	<g id="Layer 1">
		<g id="&lt;Group&gt;">
			<path id="&lt;Path&gt;" class="shp0" d="M550 768L-746 768L-746 -96L550 -96L550 768Z" />
			<path id="&lt;Path&gt;" class="shp1" d="M332.79 313.21C332.79 344.41 307.5 369.71 276.29 369.71C245.09 369.71 219.79 344.41 219.79 313.21C219.79 282 245.09 256.71 276.29 256.71C307.5 256.71 332.79 282 332.79 313.21Z" />
			<g id="&lt;Group&gt;">
				<path id="&lt;Path&gt;" class="shp2" d="M52.71 148.88C53.07 148.18 53.58 147.17 54.25 145.86C55.27 143.86 56.57 141.15 59.16 136.88C61.51 132.61 64.71 128.28 68.49 123.39C72.45 118.63 77.17 113.57 82.72 108.5C88.4 103.58 94.72 98.45 102.25 94.2C109.71 89.9 118.1 86.04 127.57 84.12C136.93 82.1 147.42 82.17 157.29 85.62C167.26 89.18 175.7 95.55 180.87 105.65C185.89 115.72 186.41 126.11 185.7 135.99C184.36 145.69 182.62 155.18 179.37 163.75C173.42 181.13 165.24 196.17 157.23 208.49C153.09 214.55 149.31 220.19 145.45 224.86C141.81 229.7 138.09 233.54 135.09 236.79C130.96 241.01 127.6 244.29 125.01 246.63C120.37 250.84 113.2 250.48 108.99 245.84C104.79 241.2 105.14 234.02 109.79 229.82C110.24 229.41 110.71 229.05 111.21 228.73L111.72 228.4C112.31 228.01 113.17 227.46 114.3 226.74C115.93 225.56 118.62 224.27 121.55 221.79C127.56 217.12 136.06 209.8 144.66 199.32C153.26 188.92 162.09 175.41 168.37 159.7C171.71 151.9 173.9 143.48 175.17 134.9C176.04 126.44 175.37 117.39 172.07 110.52C168.98 103.75 161.36 97.65 153.86 95.35C146.17 92.7 137.8 93.13 130.09 95.04C122.27 96.81 115.2 100.77 108.98 104.93C102.63 108.99 97.48 114.13 92.96 118.88C88.45 123.72 85.01 128.69 82.2 133.18C79.57 137.77 77.35 141.86 76.17 145.03C74.72 147.94 73.91 151.36 73.25 153.44C72.83 154.85 72.51 155.93 72.28 156.69C70.62 162.29 64.74 165.49 59.14 163.84C53.53 162.18 50.33 156.29 51.99 150.69C52.17 150.08 52.44 149.43 52.71 148.88Z" />
				<path id="&lt;Path&gt;" class="shp2" d="M111.66 240.98C113.38 239.28 115.9 237.23 119.23 234.83C124.27 231.24 131.97 226.32 142.79 222.23C153.53 218.2 167.71 215.1 183.78 216.86C199.8 218.54 217.21 224.95 233.09 236.07C234.96 237.33 237.31 238.98 239.07 240.49C240.93 242.06 242.82 243.32 244.7 245.25C248.63 248.77 252.1 252.62 255.52 256.59C262.15 264.75 267.87 273.98 272.69 283.91C282.5 303.73 288.67 326.31 291.87 349.93C298.25 397.32 292.51 448.66 277.5 497.62C269.89 522.06 258.64 545.93 243.57 566.84C235.85 577.43 227.07 587.13 216.65 595.36C206.51 603.79 194.17 610.17 181.04 612.71C167.9 615.32 154.51 613.96 142.71 610.26C130.91 606.41 120.01 601.2 111.79 591.39C104.13 582.06 101.23 569.81 102 558.98C102.62 547.97 106.64 538.21 111.26 529.71C121.05 512.92 133.3 500.24 144.83 490.12C156.09 480.44 165.88 470.26 166.85 460.34C167.25 455.51 163.8 452.63 160.1 451.93C156.42 451.14 152.96 451.74 150.33 452.43C146.8 453.46 144.21 454.57 142.56 455.77C141.76 456.34 140.65 456.16 140.07 455.37C139.5 454.58 139.67 453.48 140.45 452.9L140.72 452.7C142.5 451.37 145.38 450.1 149.36 448.91C152.34 448.11 156.23 447.33 160.91 448.26C163.22 448.76 165.79 449.82 167.84 451.98C169.89 454.15 170.93 457.43 170.73 460.52C170.3 466.79 166.96 472.5 162.88 477.85C158.89 483.32 153.53 488.44 148.08 493.66C137.2 503.98 125.53 516.71 117.28 532.86C113.45 540.98 110.43 550 110.48 559.29C110.44 568.53 113.26 577.85 119.77 584.88C125.75 591.33 135.73 596.17 145.66 597.61C155.8 599.13 166.18 597.1 175.54 593.23C184.94 589.27 193.89 584.03 202.59 577.47C211.16 570.81 219.22 562.64 226.51 553.76C241.57 535.76 253.9 514.93 263.26 492.41C272.89 470.02 278.77 445.94 281.77 421.98C284.55 397.98 284.8 374.01 281.99 351.19C279.21 328.42 273.66 306.65 264.55 287.88C259.97 278.52 254.6 269.91 248.46 262.4C245.27 258.73 242.08 255.23 238.75 252.23C237.25 250.63 235.11 249.17 233.32 247.66C231.43 246.07 229.89 245.03 227.87 243.66C212.99 233.4 197.22 227.42 182.88 226.37C168.54 225.12 156.07 228.15 146.54 231.96C136.96 235.81 130.13 240.39 125.73 243.67C122.78 245.91 120.7 247.67 119.48 248.95C117.35 251.19 113.82 251.29 111.58 249.16C109.34 247.04 109.25 243.5 111.37 241.26C111.41 241.22 111.44 241.18 111.48 241.15L111.66 240.98Z" />
				<path id="&lt;Path&gt;" class="shp2" d="M213.44 232.55C213.02 231.94 212.42 231.05 211.64 229.9C210.53 228.09 208.86 225.71 207.25 221.83C203.85 214.34 200.46 203.05 200.97 188.85C201.53 174.88 205.37 158.08 216.12 143.58C221.59 136.55 228.44 129.68 237.84 126.03C242.45 124.24 247.78 123.22 253.05 124.25C258.31 125.18 263.03 128.01 266.5 131.55C273.37 138.89 276.45 147.87 278.25 156.48C280.27 165.13 280.12 173.89 281.63 181.53C283.1 189.23 286.04 196.61 290.41 201.54C294.83 206.63 300.17 208.02 304.42 206.5C309.83 204.76 312.73 201.88 314.63 198.71C316.34 195.58 316.45 192.68 315.97 190.56C314.83 186.33 312.33 184.87 312.51 184.79C309.36 180.43 310.34 174.33 314.71 171.18C319.07 168.03 325.17 169.01 328.32 173.38C328.86 174.28 329.54 175.6 330.35 177.36C331.47 180.06 332.86 184.3 332.74 189.79C332.73 195.23 330.76 201.87 326.08 207.29C323.74 209.95 320.82 212.3 317.48 214.08C315.77 214.86 314.11 215.68 312.02 216.25C309.63 217.02 309.01 216.93 306.5 217.4C302.28 217.96 297.53 217.21 293.59 215.01C289.61 212.85 286.58 209.52 284.38 205.95C279.94 198.75 278.11 190.65 276.65 182.41C275.22 174.04 274.78 165.82 272.69 157.81C270.55 149.92 267.07 141.96 261.29 137.14C255.6 132.25 248.22 131.87 241.89 135.37C235.46 138.54 230.34 144.54 226.48 150.66C218.87 163.33 215.95 177.46 215.71 189.36C215.38 195.35 215.85 200.86 216.16 205.78C216.6 210.7 217.08 215.08 217.6 218.55C217.93 222.03 218.63 225.14 218.9 227.18C219.07 228.56 219.19 229.63 219.29 230.37C219.5 232.13 218.24 233.73 216.49 233.94C215.25 234.09 214.09 233.52 213.44 232.55Z" />
				<path id="&lt;Path&gt;" class="shp2" d="M248.76 485.72C249.92 487.02 251.35 488.43 253.07 489.97C255.6 492.41 259.1 495.59 262.95 498.41C264.86 499.82 266.66 501.51 268.55 502.61C270.46 503.72 272.24 504.74 273.76 505.63C275.82 506.82 277.53 507.82 278.9 508.62L279.44 508.94C280.89 509.78 281.38 511.65 280.54 513.1C279.76 514.43 278.12 514.96 276.73 514.37C275.15 513.71 273.17 512.88 270.8 511.89C269 511.13 266.91 510.25 264.67 509.3C262.42 508.33 260.36 506.85 258.11 505.59C253.63 503.11 249.38 500.15 246.25 497.8C244.08 496.29 242.41 495.01 241.22 493.97L240.87 493.67C238.55 491.62 238.32 488.08 240.37 485.75C242.41 483.43 245.95 483.2 248.28 485.24C248.44 485.39 248.62 485.57 248.76 485.72Z" />
				<path id="&lt;Path&gt;" class="shp2" d="M241.77 502.48C242.93 503.78 244.37 505.19 246.08 506.73C248.62 509.17 252.11 512.35 255.97 515.17C257.88 516.58 259.68 518.27 261.57 519.37C263.48 520.48 265.26 521.5 266.78 522.39C268.83 523.58 270.54 524.58 271.91 525.38L272.46 525.7C273.91 526.54 274.4 528.41 273.55 529.86C272.77 531.19 271.14 531.72 269.75 531.13C268.17 530.47 266.19 529.64 263.82 528.65C262.02 527.89 259.93 527.01 257.68 526.06C255.44 525.09 253.38 523.61 251.13 522.35C246.65 519.87 242.4 516.91 239.27 514.56C237.1 513.05 235.42 511.77 234.24 510.73L233.89 510.43C231.57 508.38 231.34 504.84 233.38 502.51C235.42 500.19 238.97 499.96 241.29 502C241.46 502.15 241.63 502.33 241.77 502.48Z" />
				<path id="&lt;Path&gt;" class="shp2" d="M234.79 519.24C235.95 520.54 237.39 521.95 239.1 523.49C241.63 525.93 245.13 529.11 248.99 531.93C250.9 533.34 252.7 535.03 254.58 536.13C256.49 537.24 258.27 538.26 259.79 539.15C261.85 540.34 263.56 541.34 264.93 542.14L265.47 542.46C266.93 543.3 267.42 545.17 266.57 546.62C265.79 547.95 264.15 548.48 262.77 547.89C261.19 547.23 259.21 546.4 256.83 545.41C255.04 544.65 252.94 543.77 250.7 542.82C248.45 541.85 246.4 540.37 244.15 539.11C239.66 536.63 235.41 533.67 232.29 531.32C230.12 529.81 228.44 528.53 227.26 527.49L226.91 527.19C224.58 525.14 224.35 521.6 226.4 519.27C228.44 516.95 231.99 516.72 234.31 518.76C234.47 518.91 234.65 519.09 234.79 519.24Z" />
				<path id="&lt;Path&gt;" class="shp2" d="M227.81 536C228.97 537.3 230.4 538.71 232.12 540.25C234.65 542.69 238.15 545.87 242 548.69C243.91 550.1 245.71 551.79 247.6 552.89C249.51 554 251.29 555.02 252.81 555.91C254.87 557.1 256.58 558.1 257.95 558.9L258.49 559.22C259.94 560.06 260.43 561.93 259.59 563.38C258.81 564.71 257.17 565.24 255.78 564.65C254.2 563.99 252.22 563.16 249.85 562.17C248.05 561.41 245.96 560.53 243.72 559.58C241.47 558.61 239.41 557.13 237.16 555.87C232.68 553.39 228.43 550.43 225.3 548.08C223.13 546.57 221.45 545.29 220.27 544.25L219.92 543.95C217.6 541.9 217.37 538.36 219.42 536.03C221.46 533.71 225 533.48 227.33 535.52C227.49 535.67 227.67 535.85 227.81 536Z" />
				<path id="&lt;Path&gt;" class="shp2" d="M212.19 398.51C212.33 397 212.52 394.93 212.77 392.3C213.02 390.24 212.81 388.46 212.89 386.01C213.05 383.67 212.43 380.87 212.23 377.87C211.66 374.92 210.98 371.71 209.96 368.38C208.62 365.15 207.67 361.55 205.61 358.21C204.7 356.49 203.77 354.74 202.83 352.97L199.27 347.92C197.06 344.4 194.11 341.23 191.26 338C185.72 331.6 178.71 325.13 172.91 319.09C166.91 313.05 161.32 307.42 156.53 302.58C150.14 296.14 144.81 290.77 140.55 286.47C138.75 284.67 138.76 281.75 140.56 279.95C142.3 278.22 145.11 278.18 146.91 279.8C151.39 283.87 156.99 288.96 163.71 295.06C168.75 299.64 174.62 304.98 180.92 310.7C187.23 316.61 193.92 322.1 200.67 329.05C204.01 332.45 207.42 335.79 210.22 339.69C211.68 341.58 213.14 343.45 214.58 345.29C215.8 347.33 217.02 349.33 218.22 351.3C220.8 355.14 222.32 359.47 224.1 363.37C225.59 367.4 226.68 371.4 227.55 375.06C228.07 378.83 228.91 382.15 228.94 385.36C229.05 388.44 229.31 391.49 229.17 393.38C229.06 396.03 228.98 398.11 228.91 399.62C228.73 404.25 224.84 407.85 220.21 407.67C215.59 407.49 211.98 403.6 212.16 398.97C212.17 398.83 212.18 398.64 212.19 398.51Z" />
				<path id="&lt;Path&gt;" class="shp2" d="M139.67 312.09C139.63 313.4 139.89 315.2 140.45 317.49C140.91 319.16 141.44 321.25 142.53 323.42C143.07 324.5 143.65 325.66 144.26 326.87C145.04 327.99 145.87 329.16 146.72 330.39C148.33 332.88 150.87 335.04 153.25 337.45C156.1 339.54 159.11 341.75 162.23 344.04C165.43 346.37 168.73 348.78 172.08 351.22C175.27 354.15 178.51 357.12 181.75 360.1C184.74 363.32 187.33 366.92 189.98 370.33C191.98 374.2 194.37 377.81 195.86 381.66C197.1 385.58 198.95 389.24 199.38 392.97C199.98 396.65 200.94 400.09 201.11 403.31C201.86 409.71 202 415.04 202.04 418.75C202.06 421.22 202.08 423.17 202.09 424.58C202.1 425.32 201.51 425.92 200.78 425.93C200.1 425.93 199.54 425.41 199.44 424.77C199.23 423.38 198.94 421.47 198.57 419.03C198.18 415.36 197.21 410.2 196.16 404.07C195.79 400.96 194.64 397.82 193.85 394.39C193.14 390.92 191.36 387.69 190.18 384.09C188.75 380.6 186.47 377.39 184.62 373.92C182.11 370.84 179.57 367.71 177.02 364.59C174.1 361.79 171.19 358.99 168.32 356.24C165.02 353.72 161.76 351.24 158.62 348.85C155.5 346.52 152.58 343.87 149.61 341.41C147.08 338.56 144.46 335.99 142.8 333.07C140.91 330.29 139.66 327.48 138.82 324.88C137.87 322.34 137.49 319.97 137.18 318.07C136.95 316.13 136.89 314.6 136.97 313.49C136.98 312.76 137.02 312.24 137.09 311.92L137.13 311.75C137.29 311.06 137.98 310.63 138.67 310.79C139.28 310.93 139.69 311.48 139.67 312.09Z" />
				<path id="&lt;Path&gt;" class="shp2" d="M142.1 322.47C142.14 323.72 142.29 325.46 142.57 327.7C142.88 331.03 143.52 335.81 144.82 341.4C147.12 352.6 151.87 367.08 159.73 379.72C161.48 383.01 163.87 385.87 165.99 388.83C167.97 391.91 170.65 394.36 172.85 397.07C175.02 399.81 177.69 401.91 179.93 404.23C182.07 406.68 184.62 408.39 186.76 410.26C188.96 412.06 190.83 413.95 192.78 415.23C194.68 416.63 196.33 417.84 197.7 418.83C199.53 420.16 200.96 421.27 201.97 422.15L202.21 422.36C203.38 423.39 203.5 425.17 202.47 426.34C201.73 427.19 200.58 427.49 199.57 427.19C198.25 426.82 196.49 426.18 194.27 425.29C192.58 424.63 190.53 423.83 188.19 422.91C185.74 422.13 183.46 420.38 180.68 418.92C178.03 417.29 174.99 415.69 172.24 413.35C169.52 411 166.33 408.83 163.62 405.95C161.03 402.98 157.94 400.22 155.56 396.8C153.17 393.4 150.56 390.05 148.62 386.29C146.4 382.69 144.56 378.9 143.06 375.04C141.31 371.28 140.22 367.35 139.02 363.62C137.03 356.04 135.77 348.86 135.47 342.65C134.96 334.41 135.31 327.53 136.53 322.01C136.84 320.49 138.32 319.51 139.84 319.81C141.13 320.07 142.03 321.23 142.1 322.47Z" />
				<path id="&lt;Path&gt;" class="shp2" d="M241.53 302.6C241.9 302.94 242.42 303.44 243.1 304.08C244.1 305.07 245.72 306.77 247.36 308.92C250.63 313.3 254.8 319.93 258.58 328.18C262.43 336.35 266.52 346.11 271.8 355.07C274.48 359.43 277.75 363.52 281.48 365.28C285.12 367.16 289.39 366.53 294.48 364.6C298.61 363.14 301.38 360.27 302.33 355.93C303.36 351.53 302.75 346.16 301.83 340.88C300.7 335.54 300.06 329.68 299.56 324.65C299.03 319.47 298.64 314.57 298.38 310.02C297.82 300.94 298.21 293.27 298.75 287.86C299.15 284.26 299.75 281.4 300.57 279.3L300.58 279.24C301.03 278.09 302.33 277.51 303.48 277.96C304.51 278.35 305.07 279.42 304.88 280.46C304.55 282.22 304.43 284.79 304.51 288.16C304.52 293.19 305.37 300.49 306.54 309.25C307.13 313.63 307.87 318.37 308.76 323.36C309.63 328.51 310.71 333.35 311.9 338.97C312.99 344.64 314.18 351 312.8 358.2C312.01 361.74 310.55 365.54 307.84 368.57C305.11 371.54 301.97 373.79 298.26 375.12C296.26 375.92 294.73 376.27 293.35 376.53L290.74 377.06L287.94 377.32C284.14 377.48 280.07 376.63 276.67 374.85C269.79 371.18 266.01 365.41 262.95 360.29C257.11 349.75 254.32 339.64 251.01 331.4C247.87 323.12 245.13 316.43 242.56 312.13C240.14 307.9 238.2 305.57 238.21 305.58C237.41 304.63 237.54 303.22 238.48 302.43C239.36 301.69 240.64 301.75 241.46 302.52L241.53 302.6Z" />
				<path id="&lt;Path&gt;" class="shp2" d="M289.29 310.26C292.43 320.59 290.29 330.39 284.5 332.15C278.73 333.91 271.49 326.94 268.35 316.61C265.21 306.28 267.36 296.48 273.14 294.73C278.92 292.97 286.15 299.93 289.29 310.26Z" />
				<path id="&lt;Path&gt;" class="shp2" d="M267.86 65.39C265.99 77.42 263.16 89.78 255.77 100.96L252.9 105.07L249.18 108.73C246.91 111.33 243.55 112.99 240.54 114.82C234.01 117.68 226.45 119 219.82 117.31C206.29 114.62 196.27 106.13 188.54 97.1C180.78 87.88 175.06 77.51 170.28 66.89C169.41 64.96 170.27 62.68 172.21 61.81C174.05 60.98 176.2 61.72 177.16 63.46L177.24 63.62C182.51 73.31 188.6 82.53 196.08 90.17C203.44 97.74 212.7 103.75 221.78 104.68C226.33 105.55 230.42 104.1 234.06 102.35C235.69 100.97 237.6 100.16 238.91 98.23L241.1 95.79L242.83 92.73C247.44 84.54 249.27 74.11 250.06 63.72L250.09 63.33C250.47 58.4 254.77 54.71 259.7 55.09C264.63 55.47 268.32 59.77 267.94 64.7C267.92 64.92 267.89 65.17 267.86 65.39Z" />
				<path id="&lt;Path&gt;" class="shp2" d="M235.91 70.84C235.91 79.33 229.04 86.2 220.55 86.2C212.07 86.2 205.19 79.33 205.19 70.84C205.19 62.36 212.07 55.48 220.55 55.48C229.04 55.48 235.91 62.36 235.91 70.84Z" />
				<path id="&lt;Compound Path&gt;" fill-rule="evenodd" class="shp2" d="M139.85 465.56C138.92 466.45 137.64 467.68 136.01 469.24C133.57 471.47 129.9 475 125.34 478.4C123.13 480.11 120.36 482.2 117.28 483.7C114.19 485.28 110.77 486.64 107.04 487.52C103.31 488.35 99.27 488.78 95.04 488.1C90.96 487.51 85.88 485.22 84.04 479.96L83.61 478.59C83.38 477.43 83.42 477.25 83.33 476.53C83.17 475.37 83.34 474.03 83.63 472.79C84.24 470.19 86.17 468.04 88.08 466.8C92.03 464.23 96.03 463.68 99.74 463.1C107.22 462.15 113.93 462.6 119.66 462.56C131.15 462.68 138.82 462.99 138.82 462.99L138.88 462.99C139.71 463.03 140.35 463.72 140.31 464.54C140.3 464.94 140.12 465.3 139.85 465.56ZM134.1 466.24C130.74 466.45 125.79 466.8 119.74 467.09C113.99 467.4 107.24 467.46 100.46 468.36C97.15 468.87 93.57 469.64 91.21 471.32C88.8 472.88 88.39 475.24 89.3 478.34C90 480.55 92.73 482.37 95.96 482.84C99.18 483.41 102.67 483.14 105.94 482.46C109.22 481.8 112.35 480.73 115.18 479.43C118.09 478.16 120.38 476.56 122.8 474.86C127.74 471.46 131.51 468.32 134.1 466.24Z" />
				<path id="&lt;Compound Path&gt;" fill-rule="evenodd" class="shp2" d="M137.99 465.41C136.84 464.68 135.36 463.59 133.56 462.12C130.97 459.99 126.92 456.44 123.62 451.53C120.14 446.22 117.69 439.47 116.78 431.81C116.41 427.98 116.43 423.94 117.35 419.8C118.3 415.86 120.21 410.88 125.6 408.81C127.73 408.03 130.62 407.99 132.95 408.61C135.5 409.27 137.56 411.08 138.95 412.95C141.75 416.83 142.41 421.02 142.83 424.86C143.66 432.68 141.65 439.76 140.82 445.15C140.04 450.77 139.73 455.5 139.83 458.78C139.88 461.01 140.03 462.69 140.26 463.84C140.44 464.65 139.91 465.44 139.11 465.61C138.71 465.7 138.3 465.61 137.99 465.41ZM136.65 460.35C136.15 456.85 135.66 451.37 136.32 444.6C136.99 438.5 138.33 432.16 137.56 425.39C137.18 422.09 136.37 418.56 134.56 416.25C132.91 413.88 130.11 413.28 127.3 414.04C125.12 414.72 123.27 417.75 122.54 421.03C121.75 424.35 121.65 427.92 121.94 431.33C122.46 438.14 124.52 444.58 127.25 449.11C130.21 454.04 133.32 457.23 135.77 459.59C136.07 459.87 136.38 460.1 136.65 460.35Z" />
				<path id="&lt;Compound Path&gt;" fill-rule="evenodd" class="shp2" d="M135.05 464.32C133.7 464.52 131.87 464.65 129.55 464.72C126.19 464.79 120.81 464.73 115.1 463.16C109.01 461.41 102.75 457.89 97.06 452.68C94.29 450.02 91.66 446.95 89.66 443.21C87.82 439.59 86.02 434.58 88.76 429.49C89.86 427.52 92.01 425.6 94.19 424.54C96.55 423.39 99.3 423.41 101.57 423.93C106.22 425.04 109.45 427.79 112.29 430.42C118.01 435.81 121.1 442.49 123.98 447.11C127.07 451.89 129.91 455.66 132.12 458.1C133.61 459.75 134.82 460.93 135.74 461.64C136.41 462.15 136.53 463.09 136.03 463.75C135.78 464.07 135.42 464.27 135.05 464.32ZM130.74 461.36C128.07 459.03 124.13 455.2 120.22 449.64C116.74 444.58 113.62 438.89 108.62 434.26C106.19 432 103.28 429.86 100.4 429.29C97.6 428.56 95.1 429.93 93.46 432.35C92.24 434.28 92.82 437.79 94.4 440.75C95.96 443.78 98.22 446.56 100.66 448.95C105.49 453.78 111.25 457.31 116.28 458.97C121.74 460.76 126.18 461.16 129.58 461.35C130.01 461.37 130.36 461.35 130.74 461.36Z" />
				<path id="&lt;Compound Path&gt;" fill-rule="evenodd" class="shp2" d="M84.81 443.75C84.81 448.81 80.72 452.91 75.66 452.91C70.6 452.91 66.51 448.81 66.51 443.75C66.51 438.69 70.6 434.6 75.66 434.6C80.72 434.6 84.81 438.69 84.81 443.75ZM69.51 443.75C69.51 447.15 72.27 449.91 75.66 449.91C79.05 449.91 81.81 447.15 81.81 443.75C81.81 440.36 79.05 437.6 75.66 437.6C72.27 437.6 69.51 440.36 69.51 443.75Z" />
				<path id="&lt;Compound Path&gt;" fill-rule="evenodd" class="shp2" d="M116.42 412.93C116.42 417.74 112.53 421.64 107.72 421.64C102.91 421.64 99.02 417.74 99.02 412.93C99.02 408.12 102.91 404.23 107.72 404.23C112.53 404.23 116.42 408.12 116.42 412.93ZM102.02 412.93C102.02 416.08 104.58 418.64 107.72 418.64C110.86 418.64 113.42 416.08 113.42 412.93C113.42 409.79 110.86 407.23 107.72 407.23C104.58 407.23 102.02 409.79 102.02 412.93Z" />
				<path id="&lt;Compound Path&gt;" fill-rule="evenodd" class="shp2" d="M81.88 420.76C81.88 425.81 77.79 429.91 72.73 429.91C67.67 429.91 63.58 425.81 63.58 420.76C63.58 415.7 67.67 411.61 72.73 411.61C77.79 411.61 81.88 415.7 81.88 420.76ZM66.58 420.76C66.58 424.15 69.34 426.91 72.73 426.91C76.12 426.91 78.88 424.15 78.88 420.76C78.88 417.37 76.12 414.61 72.73 414.61C69.34 414.61 66.58 417.37 66.58 420.76Z" />
				<path id="&lt;Compound Path&gt;" fill-rule="evenodd" class="shp2" d="M96.63 408.05C96.63 411.88 93.53 414.97 89.71 414.97C85.88 414.97 82.79 411.88 82.79 408.05C82.79 404.23 85.88 401.14 89.71 401.14C93.53 401.14 96.63 404.23 96.63 408.05ZM85.79 408.05C85.79 410.21 87.55 411.97 89.71 411.97C91.87 411.97 93.63 410.21 93.63 408.05C93.63 405.89 91.87 404.14 89.71 404.14C87.55 404.14 85.79 405.89 85.79 408.05Z" />
			</g>
		</g>
	</g>
</svg>