<svg xmlns:x="http://ns.adobe.com/Extensibility/1.0/" xmlns:i="http://ns.adobe.com/AdobeIllustrator/10.0/" xmlns:graph="http://ns.adobe.com/Graphs/1.0/" xmlns="http://www.w3.org/2000/svg" xmlns:xlink="http://www.w3.org/1999/xlink" version="1.1" x="0px" y="0px" viewBox="0 0 64 80" enable-background="new 0 0 64 64" xml:space="preserve"><metadata><sfw xmlns="http://ns.adobe.com/SaveForWeb/1.0/"><slices/><sliceSourceBounds y="-8160" x="-8165" width="16389" height="16384" bottomLeftOrigin="true"/></sfw></metadata><g><path d="M56,9H8c-0.552,0-1,0.448-1,1s0.448,1,1,1h1v33c0,0.553,0.448,1,1,1h21v10h-5c-0.552,0-1,0.447-1,1s0.448,1,1,1h12   c0.553,0,1-0.447,1-1s-0.447-1-1-1h-5V45h21c0.553,0,1-0.447,1-1V11h1c0.553,0,1-0.448,1-1S56.553,9,56,9z M44.707,26.707   c-0.391,0.391-1.023,0.391-1.414,0l-4.956-4.956l-5.418,12.642c-0.117,0.273-0.349,0.48-0.634,0.565   c-0.284,0.083-0.592,0.037-0.84-0.127L26,31.202l-5.445,3.63C20.384,34.945,20.191,35,20.001,35c-0.323,0-0.64-0.156-0.833-0.445   c-0.306-0.46-0.182-1.08,0.277-1.387l6-4c0.336-0.224,0.773-0.224,1.109,0l5,3.333l5.527-12.895   c0.131-0.305,0.404-0.525,0.729-0.588c0.329-0.062,0.662,0.04,0.896,0.275l6,6C45.098,25.684,45.098,26.316,44.707,26.707z"/></g><text x="0" y="79" fill="#000000" font-size="5px" font-weight="bold" font-family="'Helvetica Neue', Helvetica, Arial-Unicode, Arial, Sans-serif">Created by Ralf Schmitzer</text><text x="0" y="84" fill="#000000" font-size="5px" font-weight="bold" font-family="'Helvetica Neue', Helvetica, Arial-Unicode, Arial, Sans-serif">from the Noun Project</text></svg>