<svg xmlns="http://www.w3.org/2000/svg" data-name="Layer 1" viewBox="0 0 512 640" x="0px" y="0px"><title>sales and marketing</title><path d="M33.508,468.755H144.015a23.534,23.534,0,0,0,23.508-23.508v-1.364a23.456,23.456,0,0,0-7.83-17.5,24.05,24.05,0,0,0,4.6-5.753,67.771,67.771,0,0,0,7.553.434c1.087,0,2.169-.032,3.246-.082l.334-.014q1.653-.086,3.289-.251l.023,0c.223-.022.445-.043.667-.067a24.013,24.013,0,0,0,5.093,6.212,23.462,23.462,0,0,0-8.331,17.932v1.364a23.535,23.535,0,0,0,23.508,23.509H310.18a23.535,23.535,0,0,0,23.508-23.509v-1.364a23.461,23.461,0,0,0-8.366-17.962,24.142,24.142,0,0,0,.048-36.507,24.141,24.141,0,0,0,0-36.465,24.14,24.14,0,0,0,0-36.464,24.145,24.145,0,0,0,.262-36.238,23.452,23.452,0,0,0,8.056-17.694V262.1A23.534,23.534,0,0,0,310.18,238.59H199.673A23.534,23.534,0,0,0,176.165,262.1v1.364a23.451,23.451,0,0,0,8.054,17.692,24.11,24.11,0,0,0-4.612,5.586,67.267,67.267,0,0,0-74.892,61.16H34.19a24.174,24.174,0,0,0-15.871,42.423,24.144,24.144,0,0,0-.473,36.048A23.453,23.453,0,0,0,10,443.883v1.364A23.535,23.535,0,0,0,33.508,468.755ZM309.5,323.436a12.19,12.19,0,0,1,0,24.38H238.966a66.848,66.848,0,0,0-6.921-24.38Zm-70.581,36.741c.009-.092.019-.184.028-.277H309.5a12.191,12.191,0,0,1,0,24.381H231.9a66.537,66.537,0,0,0,6.947-23.415C238.873,360.637,238.9,360.407,238.917,360.177Zm-14.932,36.188H309.5a12.191,12.191,0,0,1,0,24.381H200.355a12.162,12.162,0,0,1-7.875-2.869A66.793,66.793,0,0,0,223.985,396.365Zm97.7,49.791a11.521,11.521,0,0,1-11.508,11.509H199.673a11.522,11.522,0,0,1-11.508-11.509v-1.364a11.521,11.521,0,0,1,11.508-11.508H310.18a11.52,11.52,0,0,1,11.508,11.508ZM199.673,274.971a11.522,11.522,0,0,1-11.508-11.509V262.1a11.521,11.521,0,0,1,11.508-11.508H310.18A11.52,11.52,0,0,1,321.688,262.1v1.364a11.521,11.521,0,0,1-11.508,11.509H199.673Zm.682,12H309.5a12.191,12.191,0,0,1,0,24.381H224.239a67.612,67.612,0,0,0-31.468-21.73A12.179,12.179,0,0,1,200.355,286.971Zm-28.511,11.308a55.456,55.456,0,0,1,55.393,55.394c0,.88-.026,1.754-.067,2.624-.01.224-.026.446-.04.669-.04.69-.091,1.377-.157,2.06-.017.184-.035.369-.055.553a55.517,55.517,0,0,1-43.781,48.326l-.284.058c-.745.151-1.5.283-2.252.4-.316.049-.633.094-.95.138-.606.086-1.213.166-1.825.232-.528.056-1.06.1-1.592.138-.447.036-.891.078-1.341.1-1.011.054-2.027.087-3.049.087a55.393,55.393,0,1,1,0-110.786ZM34.19,359.9h70.56a66.842,66.842,0,0,0,7.084,24.381H34.19a12.191,12.191,0,0,1,0-24.381ZM22,408.556a12.2,12.2,0,0,1,12.19-12.191h85.551a67.607,67.607,0,0,0,31.515,21.472,12.117,12.117,0,0,1-5.313,2.622c-.637-.051-1.278-.085-1.928-.085H33.508c-.647,0-1.287.033-1.922.085A12.207,12.207,0,0,1,22,408.556Zm12.19,24.19H143.333a24.48,24.48,0,0,0,2.762-.174,11.52,11.52,0,0,1,9.428,11.311v1.364a11.52,11.52,0,0,1-11.508,11.508H33.508A11.521,11.521,0,0,1,22,445.247v-1.364a11.523,11.523,0,0,1,9.387-11.305A24.248,24.248,0,0,0,34.19,432.746Z"/><path d="M171.969,381.988c-.042,0-.083-.007-.125-.007s-.083.006-.125.007a11.368,11.368,0,0,1-11.233-11.352,6,6,0,0,0-12,0,23.4,23.4,0,0,0,17.358,22.573v5.112a6,6,0,0,0,12,0v-5.112a23.358,23.358,0,0,0-6-45.932A11.358,11.358,0,1,1,183.2,335.919a6,6,0,0,0,12,0,23.4,23.4,0,0,0-17.359-22.574v-4.322a6,6,0,0,0-12,0v4.322a23.358,23.358,0,0,0,6,45.932,11.356,11.356,0,0,1,.125,22.711Z"/><path d="M502,191.611v-1.364a23.535,23.535,0,0,0-23.508-23.509H367.985a23.535,23.535,0,0,0-23.508,23.509v1.364a23.452,23.452,0,0,0,7.832,17.5,23.449,23.449,0,0,0-7.832,17.5v1.365a23.451,23.451,0,0,0,7.831,17.5,23.453,23.453,0,0,0-7.831,17.5v1.364a23.451,23.451,0,0,0,7.832,17.5,23.451,23.451,0,0,0-7.832,17.5V300.7a23.449,23.449,0,0,0,7.832,17.5,23.452,23.452,0,0,0-7.832,17.5v1.364a23.449,23.449,0,0,0,7.832,17.5,23.449,23.449,0,0,0-7.832,17.5v1.365a23.452,23.452,0,0,0,7.832,17.5,23.449,23.449,0,0,0-7.832,17.5v1.364a23.449,23.449,0,0,0,7.832,17.5,23.452,23.452,0,0,0-7.832,17.5v1.364a23.535,23.535,0,0,0,23.508,23.509H478.492A23.535,23.535,0,0,0,502,446.156v-1.364a23.453,23.453,0,0,0-7.833-17.5,23.449,23.449,0,0,0,7.833-17.5v-1.364a23.453,23.453,0,0,0-7.832-17.5,23.456,23.456,0,0,0,7.832-17.5v-1.365a23.449,23.449,0,0,0-7.833-17.5,23.45,23.45,0,0,0,7.833-17.5V335.7a23.456,23.456,0,0,0-7.832-17.5A23.452,23.452,0,0,0,502,300.7v-1.364a23.454,23.454,0,0,0-7.832-17.5,23.454,23.454,0,0,0,7.832-17.5v-1.364a23.454,23.454,0,0,0-7.832-17.5,23.452,23.452,0,0,0,7.832-17.5V226.61a23.452,23.452,0,0,0-7.832-17.5A23.456,23.456,0,0,0,502,191.611ZM490,444.792v1.364a11.522,11.522,0,0,1-11.508,11.509H367.985a11.521,11.521,0,0,1-11.508-11.509v-1.364a11.515,11.515,0,0,1,11.29-11.5c.073,0,.145.006.218.006H478.492c.073,0,.145,0,.218-.006A11.516,11.516,0,0,1,490,444.792Zm0-36.363v1.364a11.516,11.516,0,0,1-11.29,11.5c-.073,0-.145-.006-.218-.006H367.985c-.073,0-.145,0-.218.006a11.515,11.515,0,0,1-11.29-11.5v-1.364a11.515,11.515,0,0,1,11.277-11.5c.077,0,.153.006.231.006H478.492c.077,0,.154-.006.231-.006A11.516,11.516,0,0,1,490,408.429Zm0-36.365v1.365a11.517,11.517,0,0,1-11.277,11.5c-.077,0-.154-.006-.231-.006H367.985c-.078,0-.154,0-.231.006a11.516,11.516,0,0,1-11.277-11.5v-1.365a11.514,11.514,0,0,1,11.29-11.5c.073,0,.145,0,.218,0H478.492c.073,0,.145,0,.218,0A11.515,11.515,0,0,1,490,372.064Zm0-36.363v1.364a11.516,11.516,0,0,1-11.29,11.5c-.073,0-.145,0-.218,0H367.985c-.073,0-.145,0-.218,0a11.515,11.515,0,0,1-11.29-11.5V335.7a11.516,11.516,0,0,1,11.277-11.5c.077,0,.153.006.231.006H478.492c.077,0,.154,0,.231-.006A11.517,11.517,0,0,1,490,335.7Zm0-36.363V300.7a11.515,11.515,0,0,1-11.277,11.5c-.077,0-.154-.006-.231-.006H367.985c-.078,0-.154.006-.231.006a11.515,11.515,0,0,1-11.277-11.5v-1.364a11.515,11.515,0,0,1,11.277-11.5c.077,0,.153.006.231.006H478.492c.077,0,.154,0,.231-.006A11.516,11.516,0,0,1,490,299.338Zm0-36.364v1.364a11.517,11.517,0,0,1-11.277,11.5c-.077,0-.154-.006-.231-.006H367.985c-.078,0-.154,0-.231.006a11.516,11.516,0,0,1-11.277-11.5v-1.364a11.515,11.515,0,0,1,11.277-11.5c.077,0,.153.006.231.006H478.492c.077,0,.154,0,.231-.006A11.516,11.516,0,0,1,490,262.974Zm0-36.364v1.365a11.516,11.516,0,0,1-11.277,11.5c-.077,0-.154-.006-.231-.006H367.985c-.078,0-.154,0-.231.006a11.515,11.515,0,0,1-11.277-11.5V226.61a11.515,11.515,0,0,1,11.283-11.5c.075,0,.149,0,.225,0H478.492c.075,0,.149,0,.225,0A11.515,11.515,0,0,1,490,226.61ZM478.492,203.1H367.985c-.076,0-.15,0-.225.006a11.516,11.516,0,0,1-11.283-11.5v-1.364a11.521,11.521,0,0,1,11.508-11.509H478.492A11.522,11.522,0,0,1,490,190.247v1.364a11.516,11.516,0,0,1-11.283,11.5C478.641,203.107,478.567,203.1,478.492,203.1Z"/><path d="M238.634,113.381a6,6,0,0,0-8.083-1L55.757,237.907a6,6,0,1,0,7,9.747L233.046,125.362l56.421,66.782a6,6,0,0,0,8.248.879L438.172,84.707l19.145,22.015a6,6,0,0,0,10.513-3.52l3.549-50.9a6,6,0,0,0-5.568-6.4l-50.9-3.548a6,6,0,0,0-4.945,9.923l20.318,23.363L294.931,180.017ZM458.991,57.452l-2.124,30.465L428.525,55.328Z"/><text x="0" y="527" fill="#000000" font-size="5px" font-weight="bold" font-family="'Helvetica Neue', Helvetica, Arial-Unicode, Arial, Sans-serif">Created by Icongeek26</text><text x="0" y="532" fill="#000000" font-size="5px" font-weight="bold" font-family="'Helvetica Neue', Helvetica, Arial-Unicode, Arial, Sans-serif">from the Noun Project</text></svg>