<svg xmlns="http://www.w3.org/2000/svg" data-name="Layer 1" viewBox="0 0 512 640" x="0px" y="0px"><title>Support</title><path d="M341,191.263a6,6,0,1,0,5.232-10.8C286.5,151.521,265.478,95.47,265.187,94.677A6,6,0,0,0,253.9,98.746C254.8,101.235,276.6,160.057,341,191.263Z"/><path d="M368.055,352.223H305.507V321.74a15.65,15.65,0,0,0,2.178-4.843h18.024a25.057,25.057,0,0,0,25.029-25.029V265.184a21.815,21.815,0,0,0,17.579-21.371v-4.986a5.992,5.992,0,0,0,1.118-3.475V163.619a109.557,109.557,0,0,0-53.992-94.356,56.633,56.633,0,0,0,.59-7.889h4.561a16.022,16.022,0,1,0,0-12h-5.8a56.109,56.109,0,0,0-109.736,0h-2.773a6,6,0,0,0,0,12h1.534a56.685,56.685,0,0,0,.6,7.882,109.559,109.559,0,0,0-54,94.363V177.56a76.486,76.486,0,0,0,4.875,26.935,21,21,0,0,0,12.572,36.074v1.306a85.658,85.658,0,0,0,24.884,60.578,86.965,86.965,0,0,0,13.743,11.305v38.465H143.945a64.585,64.585,0,0,0-64.512,64.513V501a6,6,0,0,0,6,6H426.567a6,6,0,0,0,6-6V416.736A64.585,64.585,0,0,0,368.055,352.223ZM335.44,51.352a4.022,4.022,0,1,1-4.023,4.022A4.027,4.027,0,0,1,335.44,51.352Zm3.3,240.516A13.043,13.043,0,0,1,325.709,304.9h-12.9a86.837,86.837,0,0,0,24.047-39.3h1.881Zm17.579-48.055a9.792,9.792,0,0,1-9.78,9.782h-6.319V242.659c0-.262.011-.522.011-.784v-9.15q7.728,3.308,16.088,6.419ZM259.927,17A44.163,44.163,0,0,1,304.04,61.113q0,1.133-.058,2.262a109.385,109.385,0,0,0-88.106,0c-.038-.752-.063-1.5-.063-2.26A44.164,44.164,0,0,1,259.927,17ZM162.419,163.619a97.508,97.508,0,1,1,195.016,0v63.136c-61.072-23.285-93.859-55.539-110.747-78.954-19.032-26.385-22.548-47.551-22.582-47.762a6,6,0,0,0-11.86,1.823c.121.79,2.656,16.539,15.147,38.189A102.8,102.8,0,0,0,194.316,154.7a59.7,59.7,0,0,0-26.163,43.964,20.977,20.977,0,0,0-2.1.281,64.551,64.551,0,0,1-3.635-21.385Zm38.865,130.4a73.738,73.738,0,0,1-21.418-52.143v-7.212a6,6,0,0,0-6-6h-4.009a9.034,9.034,0,1,1,0-18.067h4.009a6,6,0,0,0,6-6,47.847,47.847,0,0,1,21.123-39.922,90.29,90.29,0,0,1,33.193-13.818c.738,1.084,1.492,2.175,2.28,3.278,15.376,21.531,43.213,50.014,91.756,73.163v15.391a73.458,73.458,0,0,1-24.984,54.726,15.654,15.654,0,0,0-10.755-4.283H256.428A15.75,15.75,0,0,0,240.7,308.863v4.069a15.608,15.608,0,0,0,.132,1.933,73.345,73.345,0,0,1-25.018-9.4c-.16-.106-.323-.2-.492-.294A74.694,74.694,0,0,1,201.284,294.018Zm92.748,11.462a5.971,5.971,0,0,0-.525,2.448V316.5a3.683,3.683,0,0,1-1.028.162H256.665a5.969,5.969,0,0,0-2.229-.588,3.721,3.721,0,0,1-1.741-3.143v-4.069a3.738,3.738,0,0,1,3.733-3.732h36.051A3.692,3.692,0,0,1,294.032,305.48ZM250,495H91.433V416.736a52.571,52.571,0,0,1,52.512-52.513h62.928a36.815,36.815,0,0,0,10.9,21.26L250,416.394ZM226.074,376.823a24.741,24.741,0,0,1-7.581-17.773V320.4a85.856,85.856,0,0,0,33.492,7.615,15.677,15.677,0,0,0,4.443.649h36.051c.346,0,.686-.03,1.028-.052V359.05a24.741,24.741,0,0,1-7.581,17.773L256,405.521ZM420.567,495H262V416.394l32.232-30.911a36.815,36.815,0,0,0,10.895-21.26h62.928a52.571,52.571,0,0,1,52.512,52.513Z"/><text x="0" y="527" fill="#000000" font-size="5px" font-weight="bold" font-family="'Helvetica Neue', Helvetica, Arial-Unicode, Arial, Sans-serif">Created by Icongeek26</text><text x="0" y="532" fill="#000000" font-size="5px" font-weight="bold" font-family="'Helvetica Neue', Helvetica, Arial-Unicode, Arial, Sans-serif">from the Noun Project</text></svg>