<svg xmlns="http://www.w3.org/2000/svg" viewBox="0 0 100 125" x="0px" y="0px"><title>Menu 2</title><g data-name="Home, menu, navbar, ui 3"><path d="M44,9.5H12A2.5,2.5,0,0,0,9.5,12V44A2.5,2.5,0,0,0,12,46.5H44A2.5,2.5,0,0,0,46.5,44V12A2.5,2.5,0,0,0,44,9.5Zm-2.5,32h-27v-27h27Z"/><path d="M88,9.5H56A2.5,2.5,0,0,0,53.5,12V44A2.5,2.5,0,0,0,56,46.5H88A2.5,2.5,0,0,0,90.5,44V12A2.5,2.5,0,0,0,88,9.5Zm-2.5,32h-27v-27h27Z"/><path d="M44,53.5H12A2.5,2.5,0,0,0,9.5,56V88A2.5,2.5,0,0,0,12,90.5H44A2.5,2.5,0,0,0,46.5,88V56A2.5,2.5,0,0,0,44,53.5Zm-2.5,32h-27v-27h27Z"/><path d="M88,53.5H56A2.5,2.5,0,0,0,53.5,56V88A2.5,2.5,0,0,0,56,90.5H88A2.5,2.5,0,0,0,90.5,88V56A2.5,2.5,0,0,0,88,53.5Zm-2.5,32h-27v-27h27Z"/></g><text x="0" y="115" fill="#000000" font-size="5px" font-weight="bold" font-family="'Helvetica Neue', Helvetica, Arial-Unicode, Arial, Sans-serif">Created by Manglayang studio</text><text x="0" y="120" fill="#000000" font-size="5px" font-weight="bold" font-family="'Helvetica Neue', Helvetica, Arial-Unicode, Arial, Sans-serif">from the Noun Project</text></svg>